<!--?xml version="1.0" encoding="utf-8"?-->
<!-- Generator: Adobe Illustrator 22.1.0, SVG Export Plug-In . SVG Version: 6.00 Build 0)  -->
<svg version="1.1" id="_x34_" xmlns="http://www.w3.org/2000/svg" xmlns:xlink="http://www.w3.org/1999/xlink" x="0px" y="0px" viewBox="0 0 800 652.7" style="enable-background:new 0 0 800 652.7;" xml:space="preserve">
<style type="text/css">
	.stblack{fill:#000000;}
	.st0{fill:#FFFFFF;}
</style>
<g>
	<path class="stblack" d="M779.7,318.5c-0.4-6-1.2-11.9-2.4-17.4c-2.8-35-19.5-62.8-43.3-74.8c0.7-9.4,0-19-2.2-28.4c-1.1-17.6-7-35.2-17.6-51.6
		c-23.1-35.5-63.8-58.4-103.7-58.4c-10.2,0-20.1,1.4-29.6,4.3c-2.5-10.6-7.8-20.7-15.5-29.6c-15.9-18.3-40.9-29.7-65.2-29.7
		c-20.9,0-39.5,7.8-53.7,22.2C420.2,30,384.8,16.3,344.9,16.3c-34.9,0-68.9,10.6-95.6,30c-23.5,17-39.4,39.5-46.2,64.7
		c-9-2.6-18-3.9-26.8-3.9c-31.1,0-59.7,17-76.3,45.6c-11.1,18.9-15.3,40.3-12.3,59.1c-28.5,6.5-53.5,32.1-63.3,66.8
		c-4.6,16.2-5.9,35.1-1.8,53.9c1.9,27.3,14.1,56,43.4,78.2c0.3,5.5,1,11.1,2.3,16.6c1.4,22.4,10.6,45.2,26.7,64.9
		c25.4,31.2,64.3,50.6,101.6,50.6c16.4,0,32-3.5,46.5-10.5c14.7,13.3,45.6,35.6,88.2,35.6c6.1,0,12.3-0.5,18.5-1.4
		c8.5,24.5,28.9,62.8,64.2,69.7c0.9,0.2,2,0.3,2.9,0.3c4.7,0,9.1-2.1,12-5.9c4.8-6.3,3.4-11.9,0.7-22c0.8-4.3-0.5-9.1-2.3-16
		c-1.4-5.4-3.5-13-5.1-21.4c0-0.2,0-0.4-0.1-0.6c16.6,7,36.7,10.2,53.7,10.2c23.3,0,43.1-5.4,57.3-15.4c5.5,2.2,11.4,3.3,17.5,3.3
		c15.9,0,31.7-7.6,42.4-20.4c4.9-5.8,8.4-12.3,10.5-19.2c6.4,1.9,13.1,2.8,20,2.8c18.9,0,39.1-7.2,56.7-20.2
		c16.6-12.3,29.4-28.7,35-45.1c4.2-12.1,4.5-23.6,1.1-33.9c0-1.2,0-2.4,0-3.6C763.5,408.8,782.5,361.3,779.7,318.5z"></path>
	<path class="st0" d="M728,239.8c-2.3,5.6-11.9,16-18.2,15.5c32.8-96.4-65.9-184.3-142.5-141.3c7.6-52.6-70.9-91.6-112-46.6
		c3.9,6.9,4.4,13.9,1.9,17.8C378.7-8.1,218.6,29.7,210.7,153c-5.4-2.6-9.9-14.9-12-27.7c-71.2-20.4-110.3,64.5-86.5,114.2
		c-5.3-0.7-15-14.5-20-13.5c-53.3,10.2-81.4,112-23.7,155.7c2.9,2.2,8.7-6,11.9-4c-15.7,75.9,89.5,176,172,113.3
		c1.7,1.9-4.9,11.7-1.7,14.6c17.3,15.8,55.6,41.4,107.1,27.8c4,20,23.7,66.1,56.5,72.5c3,1-24.7-54.2-9.8-86
		c3.1,3.4,9.6,15.6,14.7,18.3c29.3,15.5,86.1,18.4,109.5-6.6c20.8,15.6,52.2,0.8,58.5-24.8c-8.8-7.9-8.7-15.9-9.8-21.8
		c59.7,40.8,140.7-26.8,120.4-67.7c-5.1,2.1-18.6-1.4-23-4.9C767.4,393.7,778.9,266,728,239.8z"></path>
</g>
</svg>
