<!--?xml version="1.0" encoding="utf-8"?-->
<!-- Generator: Adobe Illustrator 22.1.0, SVG Export Plug-In . SVG Version: 6.00 Build 0)  -->
<svg version="1.1" id="_x34_" xmlns="http://www.w3.org/2000/svg" xmlns:xlink="http://www.w3.org/1999/xlink" x="0px" y="0px" viewBox="0 0 800 751.9" style="enable-background:new 0 0 800 751.9;" xml:space="preserve">
<style type="text/css">
	.stblack{fill:#000000;}
	.st0{fill:#FFFFFF;}
</style>
<g>
	<path class="stblack" d="M756.4,245c-7.2-17.7-16-34.5-26.4-50.2c-15.5-30.9-36.1-58.4-61.5-82c-66-61.5-161.7-94-276.9-94s-211,32.5-276.9,94
		c-31,28.9-54.9,63.6-71,103.1C28,254.4,20,296.5,20,341.2s8,86.8,23.6,125.3c7.2,17.7,16,34.5,26.4,50.2
		c15.5,30.9,36.1,58.4,61.5,82c66,61.5,161.7,94,276.9,94c44.7,0,86.7-4.9,125-14.5c1.9-0.5,3.8-0.7,5.7-0.7c4.6,0,9,1.3,12.9,3.8
		c25.5,16.4,55.1,34.5,55.4,34.7l27.8,17.1v-83.4c0-8.1,4-15.6,10.8-20c86.4-57.3,134-149.4,134-259.4
		C780,325.6,772,283.5,756.4,245z"></path>
	<path class="st0" d="M745,341.2c0-168-119.2-304.1-353.4-304.1S38.3,173.2,38.3,341.2s119.2,304.1,353.4,304.1
		c44.3,0,84.5-4.9,120.5-13.9c11.2-2.8,23.1-0.8,32.9,5.4c25.7,16.5,55.1,34.6,55.1,34.6v-50.8c0-14.2,7.1-27.4,19-35.3
		C702.7,529.9,745,441.2,745,341.2z"></path>
</g>
</svg>
